<svg xmlns="http://www.w3.org/2000/svg" viewBox="0 0 222 195"><path fill="#002045" fill-rule="evenodd" d="M132.0 192.6C131.8 192.4 131.1 191.9 130.4 191.5C129.7 191.1 128.9 190.5 128.6 190.2C128.3 189.9 127.5 189.3 126.8 188.8C126.0 188.3 124.8 187.4 124.2 186.8C123.5 186.2 122.9 185.8 122.8 185.8C122.7 185.8 122.4 185.4 122.2 185.1C121.8 184.3 121.8 184.2 122.6 181.0C122.7 180.4 122.9 179.3 123.1 178.5C123.5 175.8 123.7 174.8 124.2 172.5C125.0 168.7 125.8 165.0 126.0 163.7C126.1 163.0 126.4 161.9 126.5 161.2C127.2 157.5 127.2 156.9 126.0 155.1C125.4 154.1 124.7 153.1 124.5 152.8C124.2 152.4 123.5 151.4 122.9 150.4C121.5 148.4 118.4 145.4 116.2 144.0C113.7 142.4 113.5 142.2 113.5 141.9C113.5 141.3 116.2 138.6 117.6 137.6C119.1 136.6 119.7 136.6 121.0 137.2C122.0 137.7 126.5 142.5 127.4 143.9C127.9 144.8 128.4 145.2 128.8 145.2C129.2 145.3 130.0 143.6 130.0 142.9C130.0 142.5 130.1 142.0 130.3 141.7C130.4 141.4 130.6 140.5 130.8 139.7C130.9 138.7 131.4 137.5 132.3 136.0C134.0 132.9 134.0 132.9 131.1 130.6C129.8 129.6 128.8 128.6 128.8 128.4C128.8 127.7 130.8 125.4 132.6 124.0C133.3 123.5 134.4 122.6 135.0 122.0C136.6 120.5 136.9 120.5 138.9 121.8C139.9 122.6 140.7 122.9 141.0 122.8C141.6 122.7 144.8 118.4 144.8 117.7C144.8 117.3 144.5 116.8 144.1 116.5C143.0 115.4 143.2 114.6 145.4 112.5C147.4 110.6 147.3 110.6 149.3 111.1C149.8 111.3 150.1 111.1 151.0 110.0C153.3 107.2 153.6 107.0 154.8 107.0C155.8 107.0 156.1 107.1 156.4 107.6C156.7 108.0 157.5 109.0 158.3 109.9C159.1 110.8 159.8 111.7 159.8 111.8C159.8 112.0 160.2 112.6 160.8 113.3C161.4 114.1 162.1 115.0 162.3 115.4C162.5 115.8 163.2 116.8 163.9 117.5C164.5 118.2 165.0 119.0 165.0 119.1C165.0 119.3 165.4 119.9 166.0 120.5C167.0 121.7 168.3 124.0 168.2 124.7C168.2 125.8 160.2 136.5 158.7 137.3C158.5 137.4 156.9 137.5 155.3 137.5C151.0 137.5 148.2 138.5 146.3 140.9C145.6 141.7 144.0 145.9 144.0 146.9C144.0 147.1 143.8 147.8 143.6 148.5C143.3 149.6 142.8 151.7 142.3 154.6C142.1 155.4 141.8 156.7 141.6 157.5C141.4 158.3 141.1 159.8 140.9 160.9C140.6 162.0 140.3 163.6 140.1 164.5C139.9 165.4 139.6 166.7 139.5 167.4C139.3 168.1 139.1 169.1 138.9 169.6C138.8 170.2 138.6 171.1 138.5 171.8C138.4 172.4 138.2 173.3 138.0 173.9C137.9 174.4 137.7 175.6 137.5 176.4C137.1 178.5 136.6 180.7 135.5 185.1C135.3 185.8 135.1 186.8 135.0 187.4C134.1 191.9 133.7 193.0 132.8 193.0C132.6 193.0 132.2 192.8 132.0 192.6ZM131.0 185.8C131.7 185.2 131.6 183.9 130.8 183.3C130.0 182.6 129.3 182.6 128.6 183.3C127.0 184.8 129.4 187.3 131.0 185.8ZM205.4 172.7C204.7 171.8 204.9 171.2 207.0 168.3C208.8 165.8 209.0 165.4 208.8 164.8C208.6 164.2 205.6 161.7 202.5 159.5C201.9 159.0 199.4 157.2 197.0 155.4C194.7 153.6 191.8 151.4 190.6 150.6C186.3 147.5 166.8 132.8 166.5 132.4C166.2 132.0 166.2 131.8 166.6 131.1C167.2 130.0 168.6 128.5 169.1 128.5C169.3 128.5 171.1 129.8 173.2 131.3C175.2 132.9 179.7 136.3 183.1 138.9C186.6 141.5 190.3 144.3 191.5 145.2C192.7 146.1 195.2 148.1 197.1 149.5C199.1 151.0 203.0 153.9 205.8 156.1C211.2 160.2 212.0 160.7 212.6 160.4C212.8 160.3 214.0 158.9 215.3 157.3C216.7 155.6 218.0 154.2 218.2 154.1C218.8 153.9 219.9 154.6 220.1 155.3C220.4 156.0 218.1 159.2 209.5 170.1C206.9 173.4 206.2 173.9 205.4 172.7ZM85.9 155.8C82.6 155.3 78.0 152.5 78.0 151.1C78.0 149.9 78.2 149.9 82.6 149.9C85.3 149.9 86.8 149.8 87.0 149.6C87.2 149.4 87.9 149.0 88.6 148.7C90.0 148.0 93.5 145.1 95.8 142.7C96.6 141.8 97.8 140.7 98.3 140.3C98.8 139.9 100.4 138.5 101.9 137.1C107.7 131.7 109.3 130.3 112.5 127.4C114.3 125.7 116.6 123.6 117.5 122.7C118.4 121.8 120.2 120.2 121.4 119.2C122.7 118.1 123.8 117.0 124.0 116.8C124.1 116.5 125.0 115.7 125.8 115.0C126.7 114.3 128.5 112.6 129.9 111.2L132.5 108.7L132.5 107.3C132.5 106.1 132.6 105.7 133.5 104.4C134.0 103.5 134.8 102.5 135.2 102.1L136.0 101.4L137.4 102.2C138.1 102.6 138.8 103.0 138.9 103.0C138.9 103.0 139.6 102.4 140.4 101.8C141.2 101.1 142.3 100.4 142.8 100.2C144.1 99.8 144.8 99.1 144.8 98.0C144.8 97.0 145.6 96.0 146.5 96.0C147.1 96.0 150.9 99.4 152.3 101.1C153.8 103.0 153.7 103.2 150.3 106.2C148.7 107.7 146.4 109.9 145.2 111.1C144.0 112.3 142.7 113.4 142.3 113.6C141.9 113.8 141.2 114.4 140.6 115.0C140.1 115.6 138.6 116.9 137.4 117.9C136.1 119.0 134.6 120.4 134.0 121.1C133.4 121.7 132.3 122.7 131.6 123.2C130.8 123.7 129.7 124.7 129.0 125.5C128.3 126.3 127.3 127.2 126.8 127.5C125.8 128.1 122.9 130.8 118.8 134.7C117.5 136.0 116.3 137.0 116.2 137.0C116.1 137.0 115.1 137.8 114.0 138.8C113.0 139.8 111.6 141.0 111.0 141.5C110.4 142.0 109.0 143.2 107.9 144.1C106.9 145.1 105.2 146.6 104.2 147.5C103.2 148.4 102.0 149.5 101.5 149.8C101.0 150.1 100.1 150.8 99.5 151.3C98.9 151.8 97.8 152.5 97.1 152.8C96.4 153.2 95.7 153.6 95.5 153.7C92.9 155.3 88.6 156.2 85.9 155.8ZM36.9 144.3C30.6 143.1 26.0 141.0 21.6 137.1C18.7 134.5 18.2 133.8 18.5 132.7C18.7 132.2 18.9 130.3 19.1 128.3C19.5 124.6 20.1 120.1 20.5 118.1C20.6 117.4 20.8 116.0 20.9 115.0C21.0 114.0 21.2 111.8 21.5 110.2C21.8 108.7 22.1 106.1 22.3 104.6C22.5 103.0 22.8 101.6 23.0 101.4C23.4 100.9 34.0 100.8 35.5 101.2C37.2 101.7 39.1 103.1 40.1 104.6L41.1 106.0L41.1 109.2C41.1 112.2 41.1 112.5 40.4 113.8C39.5 115.6 37.7 117.4 36.0 118.2C34.1 119.2 33.6 119.3 30.1 119.5C26.3 119.7 26.6 119.3 25.7 127.1C25.6 128.6 25.4 130.3 25.3 130.8C25.2 131.9 25.8 132.7 27.7 134.0C29.1 135.0 33.0 137.0 33.5 137.0C33.7 137.0 34.4 137.2 35.0 137.5C37.7 138.7 46.7 138.7 49.0 137.5C49.5 137.2 50.2 137.0 50.5 137.0C51.2 137.0 55.5 134.7 57.2 133.4C59.7 131.5 64.0 126.6 64.0 125.7C64.0 125.6 64.2 125.2 64.4 124.8C64.9 124.1 65.1 123.5 66.2 120.6C67.2 117.7 67.4 109.7 66.5 106.8C66.2 106.0 66.2 105.4 66.5 103.9C66.6 102.9 66.9 101.0 67.0 99.6C67.1 98.2 67.3 96.9 67.4 96.7C67.7 95.9 68.4 96.2 69.2 97.4C69.9 98.5 70.3 99.4 71.6 102.4C71.8 102.8 72.0 103.4 72.0 103.7C72.0 104.0 72.2 104.8 72.5 105.5C73.7 108.6 73.7 117.9 72.5 121.0C72.3 121.6 72.0 122.6 71.9 123.1C71.8 123.6 71.6 124.2 71.5 124.5C71.4 124.7 70.9 125.7 70.5 126.6C67.6 132.8 62.2 138.3 56.1 141.3C52.4 143.1 51.5 143.4 47.1 144.3C43.8 144.9 40.3 144.9 36.9 144.3ZM142.9 133.4C143.4 132.6 143.3 132.1 142.5 131.2C141.2 129.9 139.5 130.5 139.5 132.3C139.5 133.4 140.1 134.0 141.4 134.0C142.2 134.0 142.6 133.9 142.9 133.4ZM15.9 130.6C15.7 130.3 15.3 129.7 15.1 129.3C13.8 127.2 12.5 124.3 12.0 122.4C11.9 121.8 11.6 120.9 11.3 120.2C10.7 118.6 10.7 107.9 11.3 106.2C11.6 105.6 11.9 104.6 12.1 103.9C12.5 102.2 14.1 98.7 15.3 96.8C19.7 89.8 25.7 85.4 34.4 82.8C36.5 82.2 36.9 82.1 42.1 82.1C47.3 82.2 47.8 82.2 49.8 82.8C54.4 84.2 56.5 85.2 59.8 87.5C62.2 89.1 65.7 92.3 65.9 93.1C66.0 93.4 65.8 94.9 65.5 96.4C65.3 97.9 65.0 100.0 64.9 101.1C64.8 102.2 64.6 104.0 64.4 105.0C63.8 108.1 63.0 113.9 63.0 115.2C63.0 116.7 61.9 120.8 61.1 122.0C58.9 125.5 55.6 127.1 51.0 127.1C46.8 127.1 44.1 125.8 42.7 122.9C41.9 121.3 41.8 118.3 42.4 115.1C42.6 114.0 42.9 111.7 43.1 109.9C43.3 108.1 43.7 105.4 43.9 104.0C44.5 101.0 44.3 101.1 47.8 101.0C51.0 101.0 51.1 101.1 50.4 104.0C50.2 104.7 50.0 106.2 49.9 107.2C49.7 109.1 49.3 112.1 48.6 116.6C48.3 118.7 48.3 118.9 48.7 119.8C49.4 121.0 50.1 121.3 52.2 121.2C54.1 121.1 54.1 121.1 55.0 120.0C55.9 119.0 55.9 118.8 56.4 115.9C56.6 114.2 56.9 111.9 57.0 110.8C57.1 109.6 57.4 108.0 57.6 107.1C57.8 106.3 58.0 104.7 58.1 103.5C58.2 102.3 58.4 100.5 58.6 99.4C59.2 96.0 59.2 94.9 58.5 94.1C58.0 93.5 54.4 91.0 54.1 91.0C54.1 91.0 53.2 90.6 52.2 90.1C51.2 89.6 49.8 89.1 49.0 89.0C48.2 88.8 47.1 88.6 46.6 88.4C44.8 87.8 39.6 87.9 36.8 88.5C34.2 89.1 29.9 90.8 29.1 91.5C28.8 91.8 28.5 92.0 28.4 92.0C28.1 92.0 26.6 93.1 25.0 94.5C22.0 97.1 18.8 102.3 17.6 106.4C16.7 109.6 16.7 116.9 17.6 120.1C18.0 121.4 18.0 121.7 17.6 124.2C17.4 125.7 17.2 127.7 17.1 128.8C16.9 131.0 16.5 131.6 15.9 130.6ZM154.8 117.9C155.2 117.3 155.1 115.8 154.6 115.2C152.8 113.5 150.3 115.9 152.0 117.7C152.6 118.4 154.3 118.5 154.8 117.9ZM32.8 113.2C34.7 112.4 35.4 109.4 34.0 108.0C33.3 107.2 33.2 107.2 30.9 107.3C28.1 107.4 28.1 107.5 28.0 110.9C27.9 112.9 27.9 113.1 28.4 113.4C29.2 113.8 31.7 113.6 32.8 113.2ZM118.0 113.3C117.0 113.2 115.3 112.1 115.1 111.5C114.9 110.8 115.5 109.8 120.6 103.0C123.3 99.5 125.6 96.3 125.9 96.0C126.2 95.6 127.9 93.3 129.8 90.9C131.6 88.4 133.6 85.8 134.1 85.0C135.3 83.2 135.6 83.2 137.5 84.4C140.0 86.0 140.1 86.7 137.6 90.0C136.6 91.5 135.8 92.9 135.8 93.2C135.8 93.4 136.1 94.1 136.5 94.6C136.9 95.1 137.2 95.8 137.2 96.0C137.2 96.4 134.8 99.9 131.2 104.6C130.5 105.6 129.5 106.9 129.0 107.6C127.9 109.2 127.3 109.4 126.0 108.8C124.3 107.9 124.0 108.0 121.5 111.2C120.6 112.5 119.3 113.6 119.0 113.5C118.9 113.4 118.5 113.4 118.0 113.3ZM104.4 102.1C94.1 94.4 87.9 89.7 84.9 87.4C83.6 86.4 78.3 82.4 73.0 78.4C67.7 74.4 62.4 70.4 61.2 69.5C60.1 68.6 57.0 66.3 54.5 64.4C51.9 62.5 48.9 60.2 47.7 59.3C46.5 58.4 43.6 56.1 41.1 54.2C38.7 52.4 35.1 49.7 33.3 48.3C31.4 46.9 29.1 45.2 28.2 44.5C26.0 42.8 25.8 42.4 26.6 41.6C26.9 41.3 27.4 41.0 27.5 41.0C27.8 41.0 31.2 43.5 39.2 49.7C40.8 50.9 44.4 53.6 47.3 55.7C50.1 57.9 55.2 61.8 58.6 64.4C62.1 67.0 66.9 70.6 69.4 72.5C79.3 80.0 85.6 84.8 91.1 89.0C93.2 90.6 96.7 93.2 98.9 94.9C115.0 107.0 115.2 107.2 114.5 108.1C113.7 109.1 113.0 108.6 104.4 102.1ZM145.9 105.7C146.7 104.4 145.8 102.5 144.5 102.9C143.8 103.0 143.0 104.1 143.0 104.8C143.0 105.6 143.8 106.2 144.6 106.2C145.2 106.2 145.6 106.1 145.9 105.7ZM115.2 103.9C114.7 103.7 112.4 102.1 110.1 100.4C107.8 98.6 104.1 95.8 101.9 94.1C99.7 92.5 95.6 89.4 92.9 87.3C90.1 85.2 85.5 81.7 82.6 79.5C79.7 77.3 75.4 74.1 73.0 72.2C64.1 65.5 60.2 62.5 49.0 54.0C46.2 51.9 42.9 49.4 41.8 48.5C40.6 47.6 37.8 45.5 35.5 43.8C30.2 39.8 30.2 39.8 30.1 38.4C29.9 37.1 30.3 36.5 32.7 33.4C33.5 32.4 34.5 31.2 34.9 30.6C36.5 28.4 40.9 22.6 41.6 21.8C42.3 21.1 42.5 21.0 43.7 21.0L45.1 21.0L50.0 24.7C55.0 28.5 58.6 31.2 64.9 36.0C66.8 37.5 70.1 39.9 72.1 41.5C74.2 43.1 77.2 45.4 78.8 46.6C80.5 47.9 82.3 49.3 83.0 49.8C84.4 50.8 92.3 56.8 95.2 59.0C97.4 60.6 100.4 63.0 111.2 71.2C126.8 82.9 127.1 83.1 128.3 84.2C129.5 85.3 129.9 86.6 129.4 87.8C128.8 89.0 119.1 101.7 117.6 103.1C116.6 104.1 116.2 104.2 115.2 103.9ZM131.6 83.4C131.3 83.3 127.7 80.6 123.6 77.5C111.6 68.4 105.3 63.6 102.9 61.8C99.6 59.3 93.4 54.5 89.9 51.9C88.3 50.6 86.4 49.2 85.7 48.7C84.3 47.7 78.4 43.2 73.0 39.0C71.3 37.7 69.4 36.2 68.8 35.8C68.1 35.3 65.7 33.4 63.3 31.6C61.0 29.9 57.5 27.2 55.6 25.8C48.2 20.2 45.5 17.9 45.5 17.2C45.5 16.0 47.4 17.2 57.9 25.2C59.5 26.4 63.2 29.3 66.3 31.6C69.4 33.9 73.8 37.3 76.1 39.1C78.5 40.8 81.7 43.3 83.2 44.5C84.8 45.7 86.6 47.0 87.3 47.5C87.9 48.0 90.3 49.8 92.5 51.5C94.8 53.2 97.6 55.4 98.8 56.2C100.0 57.1 102.2 58.9 103.9 60.1C105.5 61.4 108.3 63.4 110.0 64.8C111.8 66.1 114.2 67.9 115.4 68.9C118.6 71.4 121.3 73.5 125.9 76.9C132.7 81.9 133.2 82.5 133.2 83.3C133.2 83.8 132.4 83.9 131.6 83.4ZM22.5 41.5C20.9 40.5 20.3 39.8 20.1 38.5C19.9 37.0 19.9 37.0 23.3 32.5C24.9 30.5 27.3 27.2 28.9 25.2C36.0 15.8 37.2 14.3 38.2 13.2C39.7 11.6 40.0 11.4 41.3 11.8C42.5 12.1 44.4 13.5 44.6 14.3C44.7 14.6 44.3 15.3 43.2 16.8C42.3 17.9 40.1 20.9 38.3 23.4C36.4 25.9 34.1 28.9 33.1 30.1C32.2 31.4 30.0 34.2 28.3 36.5C25.4 40.4 24.0 42.0 23.6 42.0C23.5 42.0 23.0 41.8 22.5 41.5ZM24.2 26.6C23.4 26.2 17.7 21.5 13.2 17.3C11.3 15.4 8.6 12.9 7.2 11.8C3.6 8.8 1.8 6.7 1.8 5.8C1.8 4.9 3.8 2.5 4.6 2.5C4.9 2.5 7.1 3.8 9.5 5.4C11.9 7.0 14.9 8.9 16.2 9.7C19.1 11.3 29.5 18.2 29.9 18.8C30.6 19.5 30.3 20.3 28.1 23.2C25.2 27.0 25.3 27.0 24.2 26.6Z"/></svg>